/vscmnt/brussel_pixiu_data/_data_brussel/112/vsc11236/PredSimResults/SUBJ09mtu3D/worker1.mot
version=1
nRows=4
nColumns=50
inDegrees=yes
endheader
                time	         pelvis_tilt	         pelvis_list	     pelvis_rotation	           pelvis_tx	           pelvis_ty	           pelvis_tz	       hip_flexion_r	     hip_adduction_r	      hip_rotation_r	        knee_angle_r	       ankle_angle_r	         mtp_angle_r	       hip_flexion_l	     hip_adduction_l	      hip_rotation_l	        knee_angle_l	       ankle_angle_l	         mtp_angle_l	    lumbar_extension	      lumbar_bending	     lumbar_rotation	 ercspn_r/activation	 intobl_r/activation	 extobl_r/activation	    abd_r/activation	    add_r/activation	hamstrings_r/activation	bifemsh_r/activation	glut_max_r/activation	iliopsoas_r/activation	rect_fem_r/activation	  vasti_r/activation	gastroc_r/activation	 soleus_r/activation	tib_ant_r/activation	 ercspn_l/activation	 intobl_l/activation	 extobl_l/activation	    abd_l/activation	    add_l/activation	hamstrings_l/activation	bifemsh_l/activation	glut_max_l/activation	iliopsoas_l/activation	rect_fem_l/activation	  vasti_l/activation	gastroc_l/activation	 soleus_l/activation	tib_ant_l/activation	
          1.17053698	         -5.35050186	         -1.50173708	          5.94629827	          1.45146585	          0.99012651	          0.00140710	         26.28254392	         -0.07391895	          1.03968536	          1.31418101	          0.80327702	          0.24485379	        -11.93465870	         -2.38534549	          4.94123338	         -7.99311208	          8.65280275	         29.30391435	        -13.57488677	         -1.38510280	         -2.24554975	          0.01000005	          0.22846631	          0.10487060	          0.05196397	          0.09362268	          0.05641670	          0.36926952	          0.02148959	          0.04591519	          0.02049867	          0.01000014	          0.01000008	          0.01000000	          0.34658368	          0.01000001	          0.01000001	          0.01000005	          0.03308766	          0.01000000	          0.02815653	          0.17121235	          0.02219759	          0.01000009	          0.01000004	          0.01000009	          0.38234720	          0.19434829	          0.00999999	
          1.18224234	         -5.33698422	         -1.59982759	          6.06312270	          1.46980981	          0.98816460	          0.00156149	         25.85252359	          0.11487556	          0.66323243	          0.38158471	          0.25819342	          0.25605183	        -12.65774092	         -2.58490046	          4.69839190	         -8.60795039	          7.88396732	         30.91800359	        -13.17939657	         -0.95681606	         -2.23301068	          0.01000006	          0.19117088	          0.08775125	          0.04401610	          0.08411586	          0.04796528	          0.31485755	          0.05349128	          0.03841988	          0.01715245	          0.01000021	          0.01968777	          0.01427898	          0.36237652	          0.01000005	          0.01000004	          0.06127713	          0.02768634	          0.01000003	          0.04013450	          0.14326325	          0.02396915	          0.01000021	          0.01000005	          0.01000012	          0.35694036	          0.17314411	          0.01000000	
          1.19394771	         -5.31458000	         -1.69871077	          6.14605754	          1.48833937	          0.98643367	          0.00176069	         25.40113411	          0.31288237	          0.31613387	         -0.71471744	         -0.35442415	          0.23874754	        -13.21223210	         -2.76754040	          4.41887986	         -9.55544525	          7.02906177	         32.54632491	        -12.77551576	         -0.51901778	         -2.22080031	          0.01000003	          0.15996366	          0.07342651	          0.09232929	          0.07710757	          0.05733251	          0.27017834	          0.08699769	          0.03214812	          0.01435248	          0.01000004	          0.01647389	          0.01194804	          0.45005288	          0.01000002	          0.01000025	          0.06101864	          0.02316676	          0.01000004	          0.04430780	          0.11987661	          0.02039859	          0.01000004	          0.01000003	          0.01000031	          0.33005005	          0.14487962	          0.00999999	
          1.20565308	         -5.28957569	         -1.80526099	          6.19563539	          1.50675385	          0.98520530	          0.00200045	         24.94207452	          0.52575537	          0.03321647	         -1.74106674	         -1.11992976	          0.20318540	        -13.47969461	         -2.93215223	          4.11208721	        -10.99143093	          6.05653379	         34.16407051	        -12.39426104	         -0.06490045	         -2.20610900	          0.01000004	          0.13385078	          0.06144018	          0.14122993	          0.09071915	          0.05710142	          0.22607376	          0.11928873	          0.02690018	          0.01200959	          0.01000007	          0.01378466	          0.01000000	          0.50313674	          0.01000037	          0.01000005	          0.05105783	          0.01938496	          0.02255017	          0.04161079	          0.10030766	          0.01706868	          0.01000009	          0.01000003	          0.01000027	          0.28094673	          0.12122910	          0.01000000	
